<?xml version="1.0" encoding="utf-8"?>
<!-- Generator: Adobe Illustrator 23.0.0, SVG Export Plug-In . SVG Version: 6.00 Build 0)  -->
<svg version="1.1" id="Layer_1" xmlns="http://www.w3.org/2000/svg" xmlns:xlink="http://www.w3.org/1999/xlink" x="0px" y="0px"
	 viewBox="0 0 224.6 122.8" style="enable-background:new 0 0 224.6 122.8;" xml:space="preserve">
<style type="text/css">
	.st0{fill:#EC5A11;}
	.st1{fill:#FFFFFF;}
</style>
<g>
	<path d="M7.6,58.5c-2.4-1-4.3-2.4-5.6-4.1S0.1,51,0,49c0-0.3,0.1-0.6,0.3-0.8s0.5-0.4,0.9-0.4h5.2c0.4,0,0.8,0.1,1,0.3
		c0.3,0.2,0.5,0.5,0.7,0.8c0.4,1.3,1.3,2.4,2.6,3.3c1.4,0.9,3.2,1.3,5.6,1.3c2.7,0,4.7-0.4,6.1-1.3c1.4-0.9,2-2.1,2-3.7
		c0-1-0.3-1.9-1-2.6c-0.7-0.7-1.7-1.3-3.1-1.8c-1.4-0.5-3.5-1.1-6.2-1.9c-4.5-1.1-7.8-2.5-9.9-4.2C2.1,36.1,1,33.6,1,30.3
		c0-2.2,0.6-4.2,1.8-5.9c1.2-1.7,3-3.1,5.3-4.1c2.3-1,4.9-1.5,7.9-1.5c3.2,0,5.9,0.6,8.2,1.7c2.3,1.1,4.1,2.5,5.3,4.2
		c1.2,1.7,1.8,3.3,1.9,5c0,0.3-0.1,0.6-0.3,0.8c-0.2,0.2-0.5,0.4-0.9,0.4h-5.5c-0.8,0-1.4-0.3-1.7-1c-0.2-1.2-0.9-2.2-2.2-3.1
		c-1.3-0.8-2.9-1.2-4.8-1.2c-2.1,0-3.8,0.4-5,1.2c-1.2,0.8-1.8,2-1.8,3.5c0,1,0.3,1.9,0.9,2.6c0.6,0.7,1.6,1.3,2.9,1.8
		c1.3,0.5,3.2,1.1,5.7,1.8c3.4,0.8,6.1,1.6,8.1,2.6c2,1,3.5,2.2,4.4,3.6c1,1.5,1.4,3.3,1.4,5.6c0,2.5-0.7,4.6-2,6.5
		c-1.4,1.8-3.3,3.2-5.7,4.2s-5.3,1.4-8.6,1.4C13,60.1,10,59.6,7.6,58.5z"/>
	<path d="M39.1,59.1c-0.3-0.3-0.4-0.6-0.4-1v-38c0-0.4,0.1-0.8,0.4-1c0.3-0.2,0.6-0.4,1-0.4h5.2c0.4,0,0.8,0.1,1,0.4
		c0.2,0.2,0.4,0.6,0.4,1v13.1c2.3-2.8,5.4-4.1,9.2-4.1c3.5,0,6.3,1.2,8.4,3.5c2.1,2.3,3.2,5.5,3.2,9.4v16.1c0,0.4-0.1,0.7-0.4,1
		c-0.2,0.3-0.6,0.4-1,0.4h-5.2c-0.4,0-0.8-0.1-1-0.4c-0.3-0.3-0.4-0.6-0.4-1V42.4c0-2.2-0.5-4-1.6-5.2c-1.1-1.2-2.7-1.9-4.7-1.9
		c-2,0-3.5,0.6-4.7,1.9c-1.2,1.3-1.8,3-1.8,5.2v15.8c0,0.4-0.1,0.7-0.4,1c-0.2,0.3-0.6,0.4-1,0.4h-5.2
		C39.7,59.5,39.4,59.4,39.1,59.1z"/>
	<path d="M77.6,56.7c-2.4-2.3-3.8-5.5-4-9.5l-0.1-2.5l0.1-2.5c0.2-4,1.5-7.2,4-9.5c2.5-2.3,5.9-3.5,10.4-3.5c4.4,0,7.8,1.2,10.3,3.5
		c2.5,2.3,3.8,5.5,4,9.5c0,0.5,0.1,1.3,0.1,2.5c0,1.2,0,2.1-0.1,2.5c-0.2,4.1-1.5,7.2-4,9.5c-2.4,2.3-5.9,3.4-10.4,3.4
		C83.5,60.1,80.1,58.9,77.6,56.7z M92.7,52.4c1.1-1.3,1.7-3.1,1.8-5.6c0-0.4,0.1-1.1,0.1-2.2c0-1.1,0-1.9-0.1-2.2
		c-0.1-2.4-0.7-4.3-1.8-5.6c-1.1-1.3-2.7-1.9-4.6-1.9c-2,0-3.6,0.6-4.7,1.9c-1.1,1.3-1.7,3.1-1.8,5.6l-0.1,2.2l0.1,2.2
		c0.1,2.4,0.7,4.3,1.8,5.6c1.1,1.3,2.7,1.9,4.7,1.9C90.1,54.3,91.6,53.7,92.7,52.4z"/>
	<path d="M109.3,70.1c-0.3-0.2-0.4-0.6-0.4-1v-38c0-0.4,0.1-0.8,0.4-1c0.3-0.2,0.6-0.4,1-0.4h4.6c0.4,0,0.8,0.1,1,0.4
		c0.3,0.3,0.4,0.6,0.4,1v2.3c2-2.8,5.1-4.2,9.1-4.2c3.9,0,6.8,1.2,8.9,3.6c2.1,2.4,3.2,5.7,3.3,9.8c0,0.5,0.1,1.1,0.1,2.1
		c0,0.9,0,1.6-0.1,2.1c-0.1,4-1.2,7.3-3.3,9.7c-2.1,2.5-5.1,3.7-8.9,3.7c-3.8,0-6.8-1.4-8.8-4.1v13c0,0.4-0.1,0.8-0.4,1
		c-0.2,0.2-0.6,0.4-1,0.4h-5C109.9,70.4,109.6,70.3,109.3,70.1z M129.8,46.3c0-0.4,0.1-1,0.1-1.7c0-0.8,0-1.3-0.1-1.7
		c-0.3-5.1-2.4-7.6-6.5-7.6c-2.2,0-3.8,0.7-4.9,2.1c-1.1,1.4-1.6,3.1-1.7,5.2c0,0.5-0.1,1.2-0.1,2.2c0,1,0,1.7,0.1,2.2
		c0.1,1.9,0.7,3.5,1.8,4.9c1.1,1.3,2.7,2,4.8,2C127.3,53.9,129.5,51.4,129.8,46.3z"/>
</g>
<circle class="st0" cx="185.2" cy="39.4" r="39.4"/>
<g>
	<path class="st1" d="M164.3,24.4c-0.3-0.3-0.4-0.6-0.4-1v-4.2c0-0.4,0.1-0.8,0.4-1c0.3-0.3,0.6-0.4,1-0.4h5.3c0.4,0,0.8,0.1,1,0.4
		c0.3,0.3,0.4,0.6,0.4,1v4.2c0,0.4-0.1,0.7-0.4,1c-0.3,0.3-0.6,0.4-1,0.4h-5.3C164.9,24.8,164.6,24.7,164.3,24.4z M164.6,59.1
		c-0.3-0.3-0.4-0.6-0.4-1V31.1c0-0.4,0.1-0.8,0.4-1c0.3-0.2,0.6-0.4,1-0.4h4.9c0.4,0,0.7,0.1,1,0.4c0.3,0.3,0.4,0.6,0.4,1v27.1
		c0,0.4-0.1,0.7-0.4,1c-0.3,0.3-0.6,0.4-1,0.4h-4.9C165.2,59.5,164.8,59.4,164.6,59.1z"/>
	<path class="st1" d="M179.8,59.1c-0.3-0.3-0.4-0.6-0.4-1V31.1c0-0.4,0.1-0.8,0.4-1c0.3-0.2,0.6-0.4,1-0.4h4.8c0.4,0,0.8,0.1,1,0.4
		c0.2,0.3,0.4,0.6,0.4,1v2.4c2.3-2.9,5.5-4.3,9.6-4.3c3.5,0,6.3,1.1,8.4,3.4S208,38,208,42v16.1c0,0.4-0.1,0.7-0.4,1
		c-0.2,0.3-0.6,0.4-1,0.4h-5.2c-0.4,0-0.7-0.1-1-0.4c-0.3-0.3-0.4-0.6-0.4-1V42.4c0-2.2-0.5-4-1.6-5.2c-1.1-1.2-2.6-1.9-4.7-1.9
		c-2,0-3.5,0.6-4.7,1.9c-1.2,1.3-1.8,3-1.8,5.2v15.8c0,0.4-0.1,0.7-0.4,1c-0.2,0.3-0.6,0.4-1,0.4h-5.1
		C180.4,59.5,180,59.4,179.8,59.1z"/>
</g>
<g>
	<path d="M3.9,119.5c-2.4-2.2-3.7-5.3-3.8-9.2L0,108.1l0.1-2.2c0.1-3.9,1.4-7,3.8-9.2c2.4-2.2,5.6-3.3,9.6-3.3
		c2.9,0,5.3,0.5,7.3,1.5c2,1,3.5,2.3,4.4,3.7s1.5,2.9,1.6,4.2c0,0.4-0.1,0.7-0.4,0.9c-0.3,0.3-0.6,0.4-1,0.4h-4.9
		c-0.4,0-0.7-0.1-0.9-0.2c-0.2-0.2-0.4-0.5-0.5-0.9c-0.5-1.4-1.3-2.4-2.2-3c-0.9-0.6-2-0.9-3.4-0.9c-1.9,0-3.3,0.6-4.3,1.7
		c-1,1.2-1.6,2.9-1.7,5.4l-0.1,2l0.1,1.8c0.2,4.7,2.2,7.1,6,7.1c1.4,0,2.6-0.3,3.4-0.9c0.9-0.6,1.6-1.6,2.1-3
		c0.1-0.4,0.3-0.7,0.5-0.9c0.2-0.2,0.5-0.3,0.9-0.3h4.9c0.4,0,0.7,0.1,1,0.4c0.3,0.3,0.4,0.6,0.4,0.9c-0.1,1.3-0.6,2.6-1.5,4.1
		c-0.9,1.5-2.4,2.7-4.4,3.8c-2,1.1-4.4,1.6-7.4,1.6C9.4,122.8,6.2,121.7,3.9,119.5z"/>
	<path d="M35.1,119.6c-2.3-2.2-3.6-5.2-3.8-9.1l-0.1-2.4l0.1-2.4c0.2-3.8,1.5-6.8,3.8-9c2.4-2.2,5.7-3.3,9.9-3.3
		c4.2,0,7.5,1.1,9.8,3.3c2.4,2.2,3.6,5.2,3.8,9c0,0.4,0.1,1.2,0.1,2.4c0,1.2,0,2-0.1,2.4c-0.2,3.9-1.4,6.9-3.8,9.1
		c-2.3,2.2-5.6,3.3-9.9,3.3C40.7,122.8,37.4,121.7,35.1,119.6z M49.5,115.5c1-1.2,1.6-3,1.7-5.3c0-0.4,0.1-1.1,0.1-2.1
		c0-1.1,0-1.8-0.1-2.1c-0.1-2.3-0.6-4.1-1.7-5.3c-1.1-1.2-2.5-1.8-4.4-1.8c-1.9,0-3.4,0.6-4.5,1.8c-1.1,1.2-1.6,3-1.7,5.3l-0.1,2.1
		l0.1,2.1c0.1,2.3,0.6,4.1,1.7,5.3c1.1,1.2,2.5,1.8,4.5,1.8C46.9,117.3,48.4,116.7,49.5,115.5z"/>
	<path d="M68.7,121.6c-1.9-0.8-3.2-1.8-4.1-2.9c-0.9-1.1-1.3-2.1-1.3-2.9c0-0.4,0.1-0.7,0.4-0.9c0.2-0.2,0.5-0.3,0.8-0.3h4.5
		c0.3,0,0.5,0.1,0.8,0.4c0.2,0.1,0.6,0.5,1.2,1c0.6,0.5,1.4,1,2.2,1.3c0.8,0.3,1.7,0.5,2.7,0.5c1.5,0,2.6-0.3,3.6-0.8
		c0.9-0.6,1.4-1.4,1.4-2.4c0-0.7-0.2-1.3-0.6-1.8c-0.4-0.5-1.2-0.9-2.2-1.3c-1.1-0.4-2.7-0.8-4.8-1.3c-3.1-0.7-5.4-1.7-6.9-3
		c-1.5-1.3-2.2-3.1-2.2-5.4c0-1.5,0.4-2.8,1.3-4.1c0.9-1.3,2.2-2.3,3.9-3.2c1.7-0.8,3.8-1.2,6.2-1.2c2.5,0,4.6,0.4,6.4,1.2
		c1.8,0.8,3.1,1.7,4.1,2.8c0.9,1.1,1.4,2.1,1.4,2.9c0,0.3-0.1,0.6-0.4,0.8c-0.2,0.2-0.5,0.4-0.8,0.4h-4.1c-0.4,0-0.7-0.1-0.9-0.4
		c-0.3-0.2-0.7-0.5-1.2-1c-0.6-0.5-1.2-0.9-1.9-1.2c-0.7-0.3-1.5-0.4-2.5-0.4c-1.3,0-2.4,0.3-3.1,0.9c-0.7,0.6-1.1,1.3-1.1,2.3
		c0,0.7,0.2,1.2,0.5,1.6c0.3,0.4,1,0.8,2.1,1.2c1.1,0.4,2.6,0.8,4.8,1.2c6.6,1.3,9.8,4.1,9.8,8.6c0,2.6-1.1,4.7-3.4,6.3
		s-5.4,2.4-9.4,2.4C72.8,122.8,70.5,122.4,68.7,121.6z"/>
	<path d="M94.3,121.9c-0.3-0.3-0.4-0.6-0.4-0.9V95.2c0-0.4,0.1-0.7,0.4-1c0.3-0.2,0.6-0.4,0.9-0.4h4.3c0.4,0,0.7,0.1,1,0.4
		c0.2,0.2,0.4,0.6,0.4,1v1.9c2-2.5,4.6-3.7,7.9-3.7c4,0,6.9,1.6,8.5,4.9c0.9-1.5,2.1-2.6,3.7-3.5c1.6-0.9,3.3-1.3,5.2-1.3
		c3,0,5.4,1,7.3,3.1c1.9,2,2.8,5,2.8,8.9V121c0,0.4-0.1,0.7-0.4,0.9c-0.2,0.3-0.6,0.4-1,0.4h-4.5c-0.4,0-0.7-0.1-0.9-0.4
		c-0.3-0.3-0.4-0.6-0.4-0.9v-15.2c0-2.3-0.5-4-1.4-5c-1-1-2.2-1.5-3.8-1.5c-1.4,0-2.6,0.5-3.6,1.6c-1,1-1.5,2.7-1.5,4.9V121
		c0,0.4-0.1,0.7-0.4,0.9c-0.2,0.3-0.6,0.4-1,0.4h-4.6c-0.4,0-0.7-0.1-0.9-0.4c-0.3-0.3-0.4-0.6-0.4-0.9v-15.2c0-2.3-0.5-3.9-1.5-4.9
		c-1-1-2.2-1.6-3.8-1.6c-1.4,0-2.6,0.5-3.6,1.6c-1,1-1.5,2.7-1.5,4.9V121c0,0.4-0.1,0.7-0.4,0.9c-0.2,0.3-0.6,0.4-1,0.4h-4.6
		C94.8,122.3,94.5,122.2,94.3,121.9z"/>
	<path d="M145.8,119.3c-2.4-2.3-3.7-5.6-3.8-9.9L142,108c0-4.6,1.2-8.1,3.6-10.8c2.4-2.6,5.7-3.9,9.9-3.9c4.3,0,7.7,1.3,10,3.9
		c2.3,2.6,3.5,6.1,3.5,10.5v1.1c0,0.4-0.1,0.7-0.4,0.9c-0.3,0.3-0.6,0.4-1,0.4h-18.1v0.4c0.1,2,0.6,3.7,1.7,5.1c1,1.3,2.5,2,4.3,2
		c2.1,0,3.8-0.8,5.1-2.5c0.3-0.4,0.6-0.6,0.8-0.7c0.2-0.1,0.5-0.1,0.9-0.1h4.8c0.3,0,0.6,0.1,0.8,0.3c0.2,0.2,0.4,0.4,0.4,0.8
		c0,0.9-0.5,1.9-1.6,3.1c-1,1.2-2.5,2.2-4.5,3.1c-1.9,0.9-4.2,1.3-6.7,1.3C151.4,122.8,148.2,121.7,145.8,119.3z M161.5,105.6v-0.1
		c0-2.1-0.5-3.9-1.6-5.2c-1.1-1.3-2.5-1.9-4.4-1.9c-1.9,0-3.3,0.6-4.4,1.9c-1.1,1.3-1.6,3-1.6,5.2v0.1H161.5z"/>
	<path d="M180.1,119.7c-1.7-1.7-2.5-4.3-2.5-7.6V99.7h-4.3c-0.4,0-0.7-0.1-0.9-0.4c-0.3-0.3-0.4-0.6-0.4-0.9v-3.2
		c0-0.4,0.1-0.7,0.4-0.9c0.3-0.3,0.6-0.4,0.9-0.4h4.3v-9.1c0-0.4,0.1-0.7,0.4-1c0.3-0.2,0.6-0.4,0.9-0.4h4.5c0.4,0,0.7,0.1,1,0.4
		c0.2,0.2,0.4,0.6,0.4,1v9.1h6.8c0.4,0,0.7,0.1,0.9,0.4c0.3,0.3,0.4,0.6,0.4,0.9v3.2c0,0.4-0.1,0.7-0.4,0.9
		c-0.3,0.3-0.6,0.4-0.9,0.4h-6.8v11.7c0,1.6,0.3,2.7,0.8,3.6s1.4,1.2,2.7,1.2h3.8c0.4,0,0.7,0.1,1,0.4c0.2,0.2,0.4,0.6,0.4,1v3.4
		c0,0.4-0.1,0.7-0.4,0.9c-0.2,0.3-0.6,0.4-1,0.4h-4.5C184.3,122.3,181.8,121.4,180.1,119.7z"/>
	<path d="M200.9,119.6c-2.3-2.2-3.6-5.2-3.8-9.1l-0.1-2.4l0.1-2.4c0.2-3.8,1.5-6.8,3.8-9c2.4-2.2,5.7-3.3,9.9-3.3
		c4.2,0,7.5,1.1,9.8,3.3c2.4,2.2,3.6,5.2,3.8,9c0,0.4,0.1,1.2,0.1,2.4c0,1.2,0,2-0.1,2.4c-0.2,3.9-1.4,6.9-3.8,9.1
		c-2.3,2.2-5.6,3.3-9.9,3.3C206.5,122.8,203.2,121.7,200.9,119.6z M215.3,115.5c1-1.2,1.6-3,1.7-5.3c0-0.4,0.1-1.1,0.1-2.1
		c0-1.1,0-1.8-0.1-2.1c-0.1-2.3-0.6-4.1-1.7-5.3c-1.1-1.2-2.5-1.8-4.4-1.8c-1.9,0-3.4,0.6-4.5,1.8c-1.1,1.2-1.6,3-1.7,5.3l-0.1,2.1
		l0.1,2.1c0.1,2.3,0.6,4.1,1.7,5.3c1.1,1.2,2.5,1.8,4.5,1.8C212.8,117.3,214.3,116.7,215.3,115.5z"/>
</g>
</svg>
